<svg width="68" height="80" viewBox="0 0 68 80" fill="none" xmlns="http://www.w3.org/2000/svg">
<path fill-rule="evenodd" clip-rule="evenodd" d="M0.617188 0L6.74898 71.541L34.2658 79.4872L61.8575 71.5293L67.9958 0H0.617188ZM56.6309 67.0282L34.3631 73.4007L34.3632 64.295L34.2961 64.3115L16.9887 59.3264L15.8071 45.5589H24.2747L24.8894 52.5473L34.298 55.1757L34.3632 55.1655L34.3631 5.95788H61.8482L56.6309 67.0282ZM14.6528 32.2417L15.3914 41.003L34.3631 41.003V32.2417V23.4662L14.6528 32.2417ZM34.3629 22.8601V14.0987H34.2773H13.1551L13.9025 22.8601H34.3629Z" fill="#D2405A" fill-opacity="0.8"/>
<path fill-rule="evenodd" clip-rule="evenodd" d="M35.7226 22.86L34.363 23.4661V32.2416L34.3631 32.2415V41.0029H44.664L43.7278 52.4576L34.3631 55.1729V64.3017L51.6131 59.3167L53.8846 32.2415H34.3631L54.6502 22.86L55.3747 14.0986H34.363V22.7501V22.86H35.7226Z" fill="#D2405A" fill-opacity="0.8"/>
</svg>
