<svg width="77" height="81" viewBox="0 0 77 81" fill="none" xmlns="http://www.w3.org/2000/svg">
<g clip-path="url(#clip0_9_178)">
<path fill-rule="evenodd" clip-rule="evenodd" d="M26.0646 0.968018C19.0347 0.968018 13.3293 6.90306 13.3293 14.2159C13.3293 21.5287 19.0347 27.4637 26.0646 27.4637C19.0347 27.4637 13.3293 33.3988 13.3293 40.7116C13.3293 48.0244 19.0347 53.9595 26.0646 53.9595C19.0347 53.9595 13.3293 59.8945 13.3293 67.2073C13.3293 74.5202 19.0347 80.4552 26.0646 80.4552C33.0945 80.4552 38.7999 74.5202 38.7999 67.2073L38.7999 40.7116C38.7999 48.0244 44.5053 53.9595 51.5352 53.9595C58.565 53.9595 64.2704 48.0244 64.2704 40.7116C64.2704 33.3988 58.565 27.4637 51.5352 27.4637C58.565 27.4637 64.2704 21.5287 64.2704 14.2159C64.2704 6.90306 58.565 0.968018 51.5352 0.968018H26.0646ZM51.5352 27.4637H38.7999L38.7999 40.7116C38.7999 33.3988 44.5053 27.4637 51.5352 27.4637Z" fill="#D2405A" fill-opacity="0.8"/>
</g>
<defs>
<clipPath id="clip0_9_178">
<rect width="76.4116" height="79.4872" fill="white" transform="translate(0.494629 0.968018)"/>
</clipPath>
</defs>
</svg>
