<svg width="77" height="81" viewBox="0 0 77 81" fill="none" xmlns="http://www.w3.org/2000/svg">
<path fill-rule="evenodd" clip-rule="evenodd" d="M38.3182 2.83105C17.7148 2.83105 1.00757 20.2076 1.00757 41.6435C1.00757 58.7918 11.6982 73.3404 26.5229 78.4725C28.3875 78.8317 29.0721 77.6305 29.0721 76.6054C29.0721 75.6799 29.0375 72.6225 29.0215 69.3793C18.6416 71.7271 16.4513 64.7999 16.4513 64.7999C14.7541 60.3138 12.3086 59.1209 12.3086 59.1209C8.92345 56.712 12.5638 56.7615 12.5638 56.7615C16.3105 57.0353 18.2832 60.7611 18.2832 60.7611C21.611 66.6947 27.0116 64.9793 29.1407 63.9875C29.4756 61.479 30.4425 59.7668 31.5095 58.7976C23.2223 57.8162 14.5107 54.4882 14.5107 39.6163C14.5107 35.3789 15.9682 31.9166 18.3549 29.1985C17.9675 28.221 16.6904 24.2734 18.7164 18.9273C18.7164 18.9273 21.8495 17.8841 28.9794 22.9057C31.9556 22.0457 35.1474 21.6145 38.3182 21.5997C41.489 21.6145 44.6833 22.0457 47.6651 22.9057C54.7864 17.8841 57.9152 18.9273 57.9152 18.9273C59.946 24.2734 58.6683 28.221 58.2809 29.1985C60.6732 31.9166 62.1209 35.3789 62.1209 39.6163C62.1209 54.5235 53.3925 57.8059 45.0843 58.7668C46.4226 59.9712 47.615 62.3332 47.615 65.9543C47.615 71.1474 47.5718 75.327 47.5718 76.6054C47.5718 77.6382 48.2434 78.8485 50.1346 78.4673C64.9512 73.3294 75.6283 58.786 75.6283 41.6435C75.6283 20.2076 58.9235 2.83105 38.3182 2.83105ZM14.9816 58.1202C14.8995 58.313 14.6078 58.3708 14.3422 58.2384C14.0715 58.1118 13.9195 57.8489 14.0073 57.6555C14.0876 57.4569 14.3798 57.4016 14.6498 57.5347C14.9211 57.6613 15.0755 57.9267 14.9816 58.1202ZM16.8169 59.8237C16.639 59.9953 16.2911 59.9156 16.0551 59.6444C15.811 59.3738 15.7653 59.0119 15.9457 58.8377C16.1292 58.6661 16.4666 58.7465 16.7112 59.0171C16.9553 59.2909 17.0029 59.6501 16.8169 59.8237ZM18.076 62.0032C17.8474 62.1684 17.4736 62.0135 17.2425 61.6684C17.0139 61.3232 17.0139 60.9093 17.2474 60.7435C17.4791 60.5777 17.8474 60.7268 18.0815 61.0694C18.3095 61.4203 18.3095 61.8342 18.076 62.0032ZM20.2053 64.5275C20.0008 64.7621 19.5652 64.6991 19.2464 64.379C18.9202 64.066 18.8294 63.6219 19.0345 63.3873C19.2415 63.1521 19.6795 63.2183 20.0008 63.5358C20.3246 63.8481 20.4234 64.2955 20.2053 64.5275ZM22.9573 65.3797C22.8671 65.6837 22.4476 65.8218 22.0249 65.6927C21.603 65.5596 21.3268 65.2035 21.412 64.8963C21.4998 64.5904 21.9212 64.4464 22.3468 64.5846C22.7682 64.717 23.045 65.0705 22.9573 65.3797ZM26.0891 65.7411C26.0996 66.0612 25.7413 66.3266 25.2977 66.3324C24.8516 66.3427 24.4908 66.0837 24.4858 65.7688C24.4858 65.4455 24.8361 65.1826 25.2822 65.1749C25.7259 65.1659 26.0891 65.423 26.0891 65.7411ZM29.1658 65.6184C29.219 65.9308 28.9107 66.2515 28.4702 66.337C28.037 66.4193 27.6361 66.2264 27.5811 65.9167C27.5273 65.5966 27.8412 65.2759 28.2737 65.193C28.7148 65.1133 29.1096 65.3009 29.1658 65.6184Z" fill="#D2405A" fill-opacity="0.8"/>
</svg>
