<svg width="77" height="80" viewBox="0 0 77 80" fill="none" xmlns="http://www.w3.org/2000/svg">
<path fill-rule="evenodd" clip-rule="evenodd" d="M0.895508 8.9314C0.895508 4.51312 4.47724 0.931396 8.89552 0.931396H67.5162C71.9345 0.931396 75.5162 4.51311 75.5162 8.93139V70.5556C75.5162 74.9739 71.9345 78.5556 67.5162 78.5556H8.89551C4.47723 78.5556 0.895508 74.9739 0.895508 70.5556V8.9314ZM20.516 65.7998C20.516 65.7998 20.5161 65.7998 20.5161 65.7998L20.5161 65.7998C22.1691 69.4468 25.4254 72.4688 31.0348 72.4688C37.2462 72.4688 41.5036 69.0298 41.5036 61.4743V40.0747C41.5036 38.1382 39.9338 36.5684 37.9974 36.5684C36.061 36.5684 34.4912 38.1382 34.4912 40.0746V61.3712C34.4912 65.0183 33.0384 65.956 30.7342 65.956C27.3616 65.956 23.8094 63.7265 20.9553 65.5233L20.5161 65.7998L20.5161 65.7997C20.5161 65.7997 20.516 65.7997 20.516 65.7998ZM51.8219 62.8015C51.3457 62.1531 50.46 61.9179 49.7709 62.333L45.3127 65.0181C45.3127 65.0181 45.3127 65.0182 45.3127 65.0182C45.3127 65.0182 45.3127 65.0182 45.3127 65.0182C47.3661 69.239 51.5738 72.4694 58.0854 72.4694C64.7473 72.4694 69.7061 68.8744 69.7061 62.3086C69.7061 56.2124 66.35 53.5032 60.3892 50.8456L58.6362 50.0641C55.6311 48.7092 54.3287 47.8232 54.3287 45.6347C54.3287 43.8634 55.6311 42.5086 57.6848 42.5086C58.5098 42.5086 59.2158 42.6588 59.8449 42.9919C61.5442 43.8916 63.5767 44.71 65.1755 43.642C66.5778 42.7053 67.0808 40.8047 65.9687 39.537C63.8531 37.1254 61.1465 36.1513 57.6847 36.1513C51.4232 36.1513 47.4161 40.32 47.4161 45.7912C47.4161 51.7314 50.7722 54.5451 55.8316 56.7852L57.5843 57.5674C60.7901 59.0258 62.6934 59.9117 62.6934 62.4128C62.6934 64.4971 60.8406 66.0083 57.935 66.0083C55.0588 66.0083 53.2232 64.7092 51.8219 62.8015Z" fill="#D2405A" fill-opacity="0.8"/>
</svg>
