<svg width="66" height="68" viewBox="0 0 66 68" fill="none" xmlns="http://www.w3.org/2000/svg">
<path fill-rule="evenodd" clip-rule="evenodd" d="M17.7391 8.69743C17.7391 8.69743 16.7434 1.5044 32.6884 1.50439C49.3517 1.50439 48.0643 10.1767 48.0643 10.1767V24.5073C48.0643 33.1743 39.5854 33.0317 39.5854 33.0317H24.4939C15.444 33.0317 15.7305 42.2957 15.7305 42.2957V50.062H10.4156C10.4156 50.062 1.51001 50.6555 1.51001 33.9193C1.51001 17.183 11.7132 18.3868 11.7132 18.3868H32.9728V16.1493H17.7569L17.7391 8.69743ZM27.0358 9.3631C27.0358 7.7883 25.8122 6.51548 24.2983 6.51548C22.7845 6.51548 21.5609 7.7883 21.5609 9.3631C21.5609 10.9379 22.7845 12.2107 24.2983 12.2107C25.8122 12.2107 27.0358 10.9379 27.0358 9.3631Z" fill="#D2405A" fill-opacity="0.6"/>
<path fill-rule="evenodd" clip-rule="evenodd" d="M48.0906 59.3089C48.0906 59.3089 49.0863 66.5019 33.1413 66.5019C16.478 66.5019 17.7654 57.8296 17.7654 57.8296V43.499C17.7654 34.8321 26.2444 34.9746 26.2444 34.9746H41.3358C50.3857 34.9746 50.0992 25.7106 50.0992 25.7106V17.9444H55.4141C55.4141 17.9444 64.3197 17.3509 64.3197 34.0871C64.3197 50.8233 54.1165 49.6196 54.1165 49.6196H32.8569V51.857H48.0728L48.0906 59.3089ZM38.7939 58.6432C38.7939 60.218 40.0175 61.4909 41.5314 61.4909C43.0453 61.4909 44.2688 60.218 44.2688 58.6432C44.2688 57.0684 43.0453 55.7956 41.5314 55.7956C40.0175 55.7956 38.7939 57.0684 38.7939 58.6432Z" fill="#D2405A" fill-opacity="0.6"/>
</svg>
